<mxfile host="65bd71144e">
    <diagram id="gQdkU-079jKMaoDYtlni" name="Page-1">
        <mxGraphModel dx="2454" dy="1427" grid="1" gridSize="10" guides="1" tooltips="1" connect="1" arrows="1" fold="1" page="1" pageScale="1" pageWidth="850" pageHeight="1100" background="#ffffff" math="0" shadow="0">
            <root>
                <mxCell id="0"/>
                <mxCell id="1" parent="0"/>
                <mxCell id="28" value="" style="ellipse;whiteSpace=wrap;html=1;aspect=fixed;fillColor=#FF66FF;strokeColor=#000000;strokeWidth=2;" parent="1" vertex="1">
                    <mxGeometry x="528" y="281" width="39" height="39" as="geometry"/>
                </mxCell>
                <mxCell id="29" value="" style="ellipse;whiteSpace=wrap;html=1;aspect=fixed;fillColor=#FF66FF;strokeColor=#000000;strokeWidth=2;" parent="1" vertex="1">
                    <mxGeometry x="567" y="120" width="39" height="39" as="geometry"/>
                </mxCell>
                <mxCell id="30" value="" style="ellipse;whiteSpace=wrap;html=1;aspect=fixed;fillColor=#FF66FF;strokeColor=#000000;strokeWidth=2;" parent="1" vertex="1">
                    <mxGeometry x="489" y="200" width="39" height="39" as="geometry"/>
                </mxCell>
                <mxCell id="31" value="" style="ellipse;whiteSpace=wrap;html=1;aspect=fixed;fillColor=#FF66FF;strokeColor=#000000;strokeWidth=2;" parent="1" vertex="1">
                    <mxGeometry x="645" y="200" width="39" height="39" as="geometry"/>
                </mxCell>
                <mxCell id="32" value="" style="ellipse;whiteSpace=wrap;html=1;aspect=fixed;fillColor=#FF66FF;strokeColor=#000000;strokeWidth=2;" parent="1" vertex="1">
                    <mxGeometry x="606" y="281" width="39" height="39" as="geometry"/>
                </mxCell>
                <mxCell id="33" value="" style="ellipse;whiteSpace=wrap;html=1;aspect=fixed;fillColor=#FF66FF;strokeColor=#000000;strokeWidth=2;" parent="1" vertex="1">
                    <mxGeometry x="450" y="281" width="39" height="39" as="geometry"/>
                </mxCell>
                <mxCell id="34" value="" style="ellipse;whiteSpace=wrap;html=1;aspect=fixed;fillColor=#FF66FF;strokeColor=#000000;strokeWidth=2;" parent="1" vertex="1">
                    <mxGeometry x="684" y="281" width="39" height="39" as="geometry"/>
                </mxCell>
                <mxCell id="36" value="" style="endArrow=none;html=1;entryX=0;entryY=1;entryDx=0;entryDy=0;exitX=1;exitY=0;exitDx=0;exitDy=0;strokeColor=#000000;strokeWidth=3;" parent="1" source="30" target="29" edge="1">
                    <mxGeometry width="50" height="50" relative="1" as="geometry">
                        <mxPoint x="577" y="290" as="sourcePoint"/>
                        <mxPoint x="627" y="240" as="targetPoint"/>
                    </mxGeometry>
                </mxCell>
                <mxCell id="37" value="" style="endArrow=none;html=1;entryX=0;entryY=1;entryDx=0;entryDy=0;exitX=0.5;exitY=0;exitDx=0;exitDy=0;strokeColor=#000000;strokeWidth=3;" parent="1" source="33" target="30" edge="1">
                    <mxGeometry width="50" height="50" relative="1" as="geometry">
                        <mxPoint x="426.9985822331361" y="291.42141776686384" as="sourcePoint"/>
                        <mxPoint x="477.42141776686407" y="238.99858223313623" as="targetPoint"/>
                        <Array as="points">
                            <mxPoint x="481" y="260"/>
                        </Array>
                    </mxGeometry>
                </mxCell>
                <mxCell id="39" value="" style="endArrow=none;html=1;entryX=1;entryY=1;entryDx=0;entryDy=0;exitX=0.5;exitY=0;exitDx=0;exitDy=0;strokeColor=#000000;strokeWidth=3;rounded=1;" parent="1" source="28" target="30" edge="1">
                    <mxGeometry width="50" height="50" relative="1" as="geometry">
                        <mxPoint x="506.9985822331362" y="291.42141776686384" as="sourcePoint"/>
                        <mxPoint x="557.4214177668641" y="238.99858223313626" as="targetPoint"/>
                    </mxGeometry>
                </mxCell>
                <mxCell id="40" value="" style="endArrow=none;html=1;entryX=1;entryY=1;entryDx=0;entryDy=0;exitX=0;exitY=0;exitDx=0;exitDy=0;strokeColor=#000000;strokeWidth=3;" parent="1" source="31" target="29" edge="1">
                    <mxGeometry width="50" height="50" relative="1" as="geometry">
                        <mxPoint x="605.9985822331362" y="200.00141776686385" as="sourcePoint"/>
                        <mxPoint x="656.4214177668641" y="147.57858223313625" as="targetPoint"/>
                    </mxGeometry>
                </mxCell>
                <mxCell id="41" value="" style="endArrow=none;html=1;strokeColor=#000000;strokeWidth=3;entryX=0;entryY=1;entryDx=0;entryDy=0;exitX=0.5;exitY=0;exitDx=0;exitDy=0;" parent="1" source="32" target="31" edge="1">
                    <mxGeometry width="50" height="50" relative="1" as="geometry">
                        <mxPoint x="617" y="260" as="sourcePoint"/>
                        <mxPoint x="617" y="240" as="targetPoint"/>
                    </mxGeometry>
                </mxCell>
                <mxCell id="42" value="" style="endArrow=none;html=1;entryX=1;entryY=1;entryDx=0;entryDy=0;exitX=0.5;exitY=0;exitDx=0;exitDy=0;strokeColor=#000000;strokeWidth=3;" parent="1" source="34" target="31" edge="1">
                    <mxGeometry width="50" height="50" relative="1" as="geometry">
                        <mxPoint x="683.9985822331362" y="281.0014177668639" as="sourcePoint"/>
                        <mxPoint x="734.4214177668641" y="228.57858223313625" as="targetPoint"/>
                    </mxGeometry>
                </mxCell>
                <mxCell id="101" value="" style="ellipse;whiteSpace=wrap;html=1;aspect=fixed;fillColor=#FF66FF;strokeColor=#000000;strokeWidth=2;" parent="1" vertex="1">
                    <mxGeometry x="138" y="280.5" width="39" height="39" as="geometry"/>
                </mxCell>
                <mxCell id="102" value="" style="ellipse;whiteSpace=wrap;html=1;aspect=fixed;fillColor=#FF66FF;strokeColor=#000000;strokeWidth=2;" parent="1" vertex="1">
                    <mxGeometry x="177" y="119.5" width="39" height="39" as="geometry"/>
                </mxCell>
                <mxCell id="103" value="" style="ellipse;whiteSpace=wrap;html=1;aspect=fixed;fillColor=#FF66FF;strokeColor=#000000;strokeWidth=2;" parent="1" vertex="1">
                    <mxGeometry x="99" y="199.5" width="39" height="39" as="geometry"/>
                </mxCell>
                <mxCell id="104" value="" style="ellipse;whiteSpace=wrap;html=1;aspect=fixed;fillColor=#FF66FF;strokeColor=#000000;strokeWidth=2;" parent="1" vertex="1">
                    <mxGeometry x="255" y="199.5" width="39" height="39" as="geometry"/>
                </mxCell>
                <mxCell id="105" value="" style="ellipse;whiteSpace=wrap;html=1;aspect=fixed;fillColor=#FF66FF;strokeColor=#000000;strokeWidth=2;" parent="1" vertex="1">
                    <mxGeometry x="216" y="280.5" width="39" height="39" as="geometry"/>
                </mxCell>
                <mxCell id="106" value="" style="ellipse;whiteSpace=wrap;html=1;aspect=fixed;fillColor=#FF66FF;strokeColor=#000000;strokeWidth=2;" parent="1" vertex="1">
                    <mxGeometry x="60" y="280.5" width="39" height="39" as="geometry"/>
                </mxCell>
                <mxCell id="107" value="" style="ellipse;whiteSpace=wrap;html=1;aspect=fixed;fillColor=#FF66FF;strokeColor=#000000;strokeWidth=2;" parent="1" vertex="1">
                    <mxGeometry x="294" y="280.5" width="39" height="39" as="geometry"/>
                </mxCell>
                <mxCell id="108" value="" style="endArrow=none;html=1;entryX=0;entryY=1;entryDx=0;entryDy=0;exitX=1;exitY=0;exitDx=0;exitDy=0;strokeColor=#000000;strokeWidth=3;" parent="1" source="103" target="102" edge="1">
                    <mxGeometry width="50" height="50" relative="1" as="geometry">
                        <mxPoint x="187" y="289.5" as="sourcePoint"/>
                        <mxPoint x="237" y="239.5" as="targetPoint"/>
                    </mxGeometry>
                </mxCell>
                <mxCell id="109" value="" style="endArrow=none;html=1;entryX=0;entryY=1;entryDx=0;entryDy=0;exitX=0.5;exitY=0;exitDx=0;exitDy=0;strokeColor=#000000;strokeWidth=3;" parent="1" source="106" target="103" edge="1">
                    <mxGeometry width="50" height="50" relative="1" as="geometry">
                        <mxPoint x="36.99858223313612" y="290.9214177668639" as="sourcePoint"/>
                        <mxPoint x="87.42141776686407" y="238.49858223313618" as="targetPoint"/>
                        <Array as="points">
                            <mxPoint x="91" y="259.5"/>
                        </Array>
                    </mxGeometry>
                </mxCell>
                <mxCell id="110" value="" style="endArrow=none;html=1;entryX=1;entryY=1;entryDx=0;entryDy=0;exitX=0.5;exitY=0;exitDx=0;exitDy=0;strokeColor=#000000;strokeWidth=3;rounded=1;" parent="1" source="101" target="103" edge="1">
                    <mxGeometry width="50" height="50" relative="1" as="geometry">
                        <mxPoint x="116.99858223313618" y="290.9214177668639" as="sourcePoint"/>
                        <mxPoint x="167.42141776686412" y="238.4985822331363" as="targetPoint"/>
                    </mxGeometry>
                </mxCell>
                <mxCell id="111" value="" style="endArrow=none;html=1;entryX=1;entryY=1;entryDx=0;entryDy=0;exitX=0;exitY=0;exitDx=0;exitDy=0;strokeColor=#000000;strokeWidth=3;" parent="1" source="104" target="102" edge="1">
                    <mxGeometry width="50" height="50" relative="1" as="geometry">
                        <mxPoint x="215.99858223313618" y="199.50141776686382" as="sourcePoint"/>
                        <mxPoint x="266.4214177668641" y="147.07858223313622" as="targetPoint"/>
                    </mxGeometry>
                </mxCell>
                <mxCell id="112" value="" style="endArrow=none;html=1;strokeColor=#000000;strokeWidth=3;entryX=0;entryY=1;entryDx=0;entryDy=0;exitX=0.5;exitY=0;exitDx=0;exitDy=0;" parent="1" source="105" target="104" edge="1">
                    <mxGeometry width="50" height="50" relative="1" as="geometry">
                        <mxPoint x="227" y="259.5" as="sourcePoint"/>
                        <mxPoint x="227" y="239.5" as="targetPoint"/>
                    </mxGeometry>
                </mxCell>
                <mxCell id="113" value="" style="endArrow=none;html=1;entryX=1;entryY=1;entryDx=0;entryDy=0;exitX=0.5;exitY=0;exitDx=0;exitDy=0;strokeColor=#000000;strokeWidth=3;" parent="1" source="107" target="104" edge="1">
                    <mxGeometry width="50" height="50" relative="1" as="geometry">
                        <mxPoint x="293.9985822331362" y="280.5014177668638" as="sourcePoint"/>
                        <mxPoint x="344.4214177668641" y="228.07858223313622" as="targetPoint"/>
                    </mxGeometry>
                </mxCell>
                <mxCell id="114" value="" style="ellipse;whiteSpace=wrap;html=1;aspect=fixed;fillColor=#FF66FF;strokeColor=#000000;strokeWidth=2;" parent="1" vertex="1">
                    <mxGeometry x="21" y="360" width="39" height="39" as="geometry"/>
                </mxCell>
                <mxCell id="117" value="" style="endArrow=none;html=1;strokeColor=#000000;strokeWidth=3;exitX=0.645;exitY=0.005;exitDx=0;exitDy=0;exitPerimeter=0;entryX=0;entryY=1;entryDx=0;entryDy=0;" parent="1" source="114" target="106" edge="1">
                    <mxGeometry width="50" height="50" relative="1" as="geometry">
                        <mxPoint x="60" y="350" as="sourcePoint"/>
                        <mxPoint x="60" y="320" as="targetPoint"/>
                    </mxGeometry>
                </mxCell>
                <mxCell id="119" value="" style="ellipse;whiteSpace=wrap;html=1;aspect=fixed;fillColor=#FF66FF;strokeColor=#000000;strokeWidth=2;" parent="1" vertex="1">
                    <mxGeometry x="1020" y="119.5" width="39" height="39" as="geometry"/>
                </mxCell>
                <mxCell id="120" value="" style="ellipse;whiteSpace=wrap;html=1;aspect=fixed;fillColor=#FF66FF;strokeColor=#000000;strokeWidth=2;" parent="1" vertex="1">
                    <mxGeometry x="896" y="199.5" width="39" height="39" as="geometry"/>
                </mxCell>
                <mxCell id="123" value="" style="ellipse;whiteSpace=wrap;html=1;aspect=fixed;fillColor=#FF66FF;strokeColor=#000000;strokeWidth=2;" parent="1" vertex="1">
                    <mxGeometry x="829" y="281" width="39" height="39" as="geometry"/>
                </mxCell>
                <mxCell id="125" value="" style="endArrow=none;html=1;entryX=0;entryY=1;entryDx=0;entryDy=0;exitX=1;exitY=0;exitDx=0;exitDy=0;strokeColor=#000000;strokeWidth=3;" parent="1" source="120" target="119" edge="1">
                    <mxGeometry width="50" height="50" relative="1" as="geometry">
                        <mxPoint x="995" y="289.5" as="sourcePoint"/>
                        <mxPoint x="1045" y="239.5" as="targetPoint"/>
                    </mxGeometry>
                </mxCell>
                <mxCell id="128" value="" style="endArrow=none;html=1;entryX=1;entryY=1;entryDx=0;entryDy=0;exitX=0;exitY=0;exitDx=0;exitDy=0;strokeColor=#000000;strokeWidth=3;" parent="1" source="150" target="119" edge="1">
                    <mxGeometry width="50" height="50" relative="1" as="geometry">
                        <mxPoint x="1134.7114177668627" y="205.71141776686238" as="sourcePoint"/>
                        <mxPoint x="1074.4214177668641" y="147.07858223313622" as="targetPoint"/>
                    </mxGeometry>
                </mxCell>
                <mxCell id="131" value="" style="ellipse;whiteSpace=wrap;html=1;aspect=fixed;fillColor=#FF66FF;strokeColor=#000000;strokeWidth=2;" parent="1" vertex="1">
                    <mxGeometry x="790" y="360" width="39" height="39" as="geometry"/>
                </mxCell>
                <mxCell id="132" value="" style="endArrow=none;html=1;strokeColor=#000000;strokeWidth=3;exitX=0.645;exitY=0.005;exitDx=0;exitDy=0;exitPerimeter=0;entryX=0;entryY=1;entryDx=0;entryDy=0;" parent="1" source="131" target="123" edge="1">
                    <mxGeometry width="50" height="50" relative="1" as="geometry">
                        <mxPoint x="829" y="350" as="sourcePoint"/>
                        <mxPoint x="829" y="320" as="targetPoint"/>
                    </mxGeometry>
                </mxCell>
                <mxCell id="133" value="" style="ellipse;whiteSpace=wrap;html=1;aspect=fixed;fillColor=#FF66FF;strokeColor=#000000;strokeWidth=2;" parent="1" vertex="1">
                    <mxGeometry x="868" y="360" width="39" height="39" as="geometry"/>
                </mxCell>
                <mxCell id="134" value="" style="endArrow=none;html=1;entryX=1;entryY=1;entryDx=0;entryDy=0;strokeColor=#000000;strokeWidth=3;rounded=1;exitX=0.342;exitY=0.034;exitDx=0;exitDy=0;exitPerimeter=0;" parent="1" source="133" target="123" edge="1">
                    <mxGeometry width="50" height="50" relative="1" as="geometry">
                        <mxPoint x="955" y="367.71" as="sourcePoint"/>
                        <mxPoint x="929.9985822331423" y="329.9985822331424" as="targetPoint"/>
                    </mxGeometry>
                </mxCell>
                <mxCell id="136" value="" style="ellipse;whiteSpace=wrap;html=1;aspect=fixed;fillColor=#FF66FF;strokeColor=#000000;strokeWidth=2;" parent="1" vertex="1">
                    <mxGeometry x="959" y="281" width="39" height="39" as="geometry"/>
                </mxCell>
                <mxCell id="137" value="" style="ellipse;whiteSpace=wrap;html=1;aspect=fixed;fillColor=#FF66FF;strokeColor=#000000;strokeWidth=2;" parent="1" vertex="1">
                    <mxGeometry x="920" y="360" width="39" height="39" as="geometry"/>
                </mxCell>
                <mxCell id="138" value="" style="endArrow=none;html=1;strokeColor=#000000;strokeWidth=3;exitX=0.645;exitY=0.005;exitDx=0;exitDy=0;exitPerimeter=0;entryX=0;entryY=1;entryDx=0;entryDy=0;" parent="1" source="137" target="136" edge="1">
                    <mxGeometry width="50" height="50" relative="1" as="geometry">
                        <mxPoint x="959" y="350" as="sourcePoint"/>
                        <mxPoint x="959" y="320" as="targetPoint"/>
                    </mxGeometry>
                </mxCell>
                <mxCell id="139" value="" style="ellipse;whiteSpace=wrap;html=1;aspect=fixed;fillColor=#FF66FF;strokeColor=#000000;strokeWidth=2;" parent="1" vertex="1">
                    <mxGeometry x="998" y="360" width="39" height="39" as="geometry"/>
                </mxCell>
                <mxCell id="140" value="" style="endArrow=none;html=1;entryX=1;entryY=1;entryDx=0;entryDy=0;strokeColor=#000000;strokeWidth=3;rounded=1;exitX=0.342;exitY=0.034;exitDx=0;exitDy=0;exitPerimeter=0;" parent="1" source="139" target="136" edge="1">
                    <mxGeometry width="50" height="50" relative="1" as="geometry">
                        <mxPoint x="1085" y="367.71" as="sourcePoint"/>
                        <mxPoint x="1059.9985822331423" y="329.9985822331424" as="targetPoint"/>
                    </mxGeometry>
                </mxCell>
                <mxCell id="143" value="" style="ellipse;whiteSpace=wrap;html=1;aspect=fixed;fillColor=#FF66FF;strokeColor=#000000;strokeWidth=2;" parent="1" vertex="1">
                    <mxGeometry x="1051" y="360" width="39" height="39" as="geometry"/>
                </mxCell>
                <mxCell id="144" value="" style="endArrow=none;html=1;strokeColor=#000000;strokeWidth=3;exitX=0.645;exitY=0.005;exitDx=0;exitDy=0;exitPerimeter=0;entryX=0;entryY=1;entryDx=0;entryDy=0;" parent="1" source="143" target="151" edge="1">
                    <mxGeometry width="50" height="50" relative="1" as="geometry">
                        <mxPoint x="1090" y="350" as="sourcePoint"/>
                        <mxPoint x="1100" y="340" as="targetPoint"/>
                    </mxGeometry>
                </mxCell>
                <mxCell id="148" value="" style="endArrow=none;html=1;entryX=0;entryY=1;entryDx=0;entryDy=0;exitX=0.5;exitY=0;exitDx=0;exitDy=0;strokeColor=#000000;strokeWidth=3;" parent="1" source="123" target="120" edge="1">
                    <mxGeometry width="50" height="50" relative="1" as="geometry">
                        <mxPoint x="905.7885822331241" y="280.5014177668756" as="sourcePoint"/>
                        <mxPoint x="973.2114177668614" y="228.0785822331382" as="targetPoint"/>
                    </mxGeometry>
                </mxCell>
                <mxCell id="149" value="" style="endArrow=none;html=1;entryX=1;entryY=1;entryDx=0;entryDy=0;exitX=0.5;exitY=0;exitDx=0;exitDy=0;strokeColor=#000000;strokeWidth=3;" parent="1" source="136" target="120" edge="1">
                    <mxGeometry width="50" height="50" relative="1" as="geometry">
                        <mxPoint x="943.2885822331241" y="225.21141776687557" as="sourcePoint"/>
                        <mxPoint x="1010.7114177668614" y="172.7885822331382" as="targetPoint"/>
                    </mxGeometry>
                </mxCell>
                <mxCell id="150" value="" style="ellipse;whiteSpace=wrap;html=1;aspect=fixed;fillColor=#FF66FF;strokeColor=#000000;strokeWidth=2;" parent="1" vertex="1">
                    <mxGeometry x="1157" y="199" width="39" height="39" as="geometry"/>
                </mxCell>
                <mxCell id="151" value="" style="ellipse;whiteSpace=wrap;html=1;aspect=fixed;fillColor=#FF66FF;strokeColor=#000000;strokeWidth=2;" parent="1" vertex="1">
                    <mxGeometry x="1090" y="280.5" width="39" height="39" as="geometry"/>
                </mxCell>
                <mxCell id="152" value="" style="ellipse;whiteSpace=wrap;html=1;aspect=fixed;fillColor=#FF66FF;strokeColor=#000000;strokeWidth=2;" parent="1" vertex="1">
                    <mxGeometry x="1220" y="280.5" width="39" height="39" as="geometry"/>
                </mxCell>
                <mxCell id="153" value="" style="endArrow=none;html=1;entryX=0;entryY=1;entryDx=0;entryDy=0;strokeColor=#000000;strokeWidth=3;exitX=0.68;exitY=0.052;exitDx=0;exitDy=0;exitPerimeter=0;" parent="1" source="151" target="150" edge="1">
                    <mxGeometry width="50" height="50" relative="1" as="geometry">
                        <mxPoint x="1130" y="270" as="sourcePoint"/>
                        <mxPoint x="1234.2114177668614" y="227.5785822331382" as="targetPoint"/>
                    </mxGeometry>
                </mxCell>
                <mxCell id="154" value="" style="endArrow=none;html=1;entryX=1;entryY=1;entryDx=0;entryDy=0;exitX=0.5;exitY=0;exitDx=0;exitDy=0;strokeColor=#000000;strokeWidth=3;" parent="1" source="152" target="150" edge="1">
                    <mxGeometry width="50" height="50" relative="1" as="geometry">
                        <mxPoint x="1204.288582233124" y="224.71141776687557" as="sourcePoint"/>
                        <mxPoint x="1271.7114177668614" y="172.2885822331382" as="targetPoint"/>
                    </mxGeometry>
                </mxCell>
                <mxCell id="156" value="Text" style="text;html=1;strokeColor=none;fillColor=none;align=center;verticalAlign=middle;whiteSpace=wrap;rounded=0;" vertex="1" parent="1">
                    <mxGeometry x="166.5" y="60" width="60" height="30" as="geometry"/>
                </mxCell>
                <mxCell id="157" value="Text" style="text;html=1;strokeColor=none;fillColor=none;align=center;verticalAlign=middle;whiteSpace=wrap;rounded=0;" vertex="1" parent="1">
                    <mxGeometry x="117" y="440" width="60" height="30" as="geometry"/>
                </mxCell>
                <mxCell id="158" value="Text" style="text;html=1;strokeColor=none;fillColor=none;align=center;verticalAlign=middle;whiteSpace=wrap;rounded=0;fontColor=#FFFFFF;" vertex="1" parent="1">
                    <mxGeometry x="1290" y="285" width="60" height="30" as="geometry"/>
                </mxCell>
                <mxCell id="159" value="Text" style="text;html=1;strokeColor=none;fillColor=none;align=center;verticalAlign=middle;whiteSpace=wrap;rounded=0;fontColor=#FFFFFF;" vertex="1" parent="1">
                    <mxGeometry x="-80" y="364.5" width="60" height="30" as="geometry"/>
                </mxCell>
            </root>
        </mxGraphModel>
    </diagram>
</mxfile>